<svg width="640" height="640" viewBox="0 0 640 640" fill="none" xmlns="http://www.w3.org/2000/svg">
<rect width="640" height="640" fill="#4D45C2"/>
<path d="M112.024 304.646C113.198 302.816 114.815 301.34 116.878 300.216C118.94 299.088 121.354 298.528 124.121 298.528C127.357 298.528 130.285 299.346 132.912 300.99C135.537 302.63 137.599 304.974 139.101 308.02C140.647 311.068 141.421 314.608 141.421 318.64C141.421 322.672 140.647 326.234 139.101 329.33C137.6 332.376 135.537 334.746 132.912 336.434C130.287 338.074 127.357 338.896 124.121 338.896C121.404 338.896 118.987 338.332 116.878 337.206C114.815 336.082 113.196 334.628 112.024 332.846V357.04H100V299.088H112.024V304.646ZM129.184 318.64C129.184 315.64 128.341 313.296 126.654 311.61C125.011 309.872 122.971 309.006 120.535 309.006C118.143 309.006 116.104 309.872 114.417 311.608C112.774 313.342 111.955 315.71 111.955 318.71C111.955 321.712 112.774 324.078 114.417 325.814C116.104 327.548 118.143 328.414 120.535 328.414C122.926 328.414 124.966 327.548 126.654 325.816C128.341 324.032 129.184 321.64 129.184 318.64ZM145.34 318.64C145.34 314.608 146.088 311.068 147.59 308.022C149.136 304.974 151.224 302.63 153.849 300.988C156.474 299.346 159.404 298.526 162.639 298.526C165.406 298.526 167.82 299.088 169.884 300.216C171.993 301.34 173.61 302.816 174.736 304.646V299.088H186.762V338.332H174.736V332.776C173.563 334.604 171.922 336.08 169.813 337.208C167.749 338.33 165.335 338.896 162.568 338.896C159.38 338.896 156.474 338.074 153.849 336.434C151.224 334.746 149.136 332.376 147.59 329.33C146.09 326.234 145.34 322.672 145.34 318.64ZM174.736 318.71C174.736 315.71 173.891 313.342 172.204 311.608C170.563 309.874 168.547 309.006 166.156 309.006C163.766 309.006 161.726 309.872 160.038 311.608C158.396 313.296 157.576 315.64 157.576 318.64C157.576 321.64 158.396 324.032 160.038 325.814C161.726 327.548 163.766 328.414 166.156 328.414C168.547 328.414 170.563 327.548 172.204 325.816C173.891 324.078 174.736 321.712 174.736 318.71ZM207.486 305.63C208.894 303.472 210.652 301.784 212.762 300.566C214.872 299.3 217.216 298.668 219.794 298.668V311.396H216.49C213.488 311.396 211.238 312.052 209.738 313.366C208.236 314.632 207.486 316.882 207.486 320.116V338.332H195.462V299.088H207.486V305.63ZM223.152 318.64C223.152 314.608 223.902 311.068 225.402 308.022C226.948 304.974 229.036 302.63 231.66 300.988C234.286 299.346 237.216 298.526 240.452 298.526C243.218 298.526 245.632 299.088 247.696 300.216C249.806 301.34 251.422 302.816 252.548 304.646V299.088H264.574V338.332H252.548V332.776C251.374 334.604 249.734 336.08 247.626 337.208C245.562 338.33 243.148 338.896 240.38 338.896C237.192 338.896 234.286 338.074 231.66 336.434C229.036 334.746 226.948 332.376 225.402 329.33C223.902 326.234 223.152 322.672 223.152 318.64ZM252.548 318.71C252.548 315.71 251.704 313.342 250.016 311.608C248.376 309.874 246.36 309.006 243.968 309.006C241.578 309.006 239.538 309.872 237.85 311.608C236.208 313.296 235.388 315.64 235.388 318.64C235.388 321.64 236.208 324.032 237.85 325.814C239.538 327.548 241.578 328.414 243.968 328.414C246.36 328.414 248.376 327.548 250.016 325.816C251.704 324.078 252.548 321.712 252.548 318.71ZM270.882 318.64C270.882 314.608 271.632 311.068 273.132 308.022C274.68 304.974 276.766 302.63 279.392 300.988C282.018 299.346 284.948 298.526 288.184 298.526C290.762 298.526 293.106 299.066 295.216 300.144C297.372 301.224 299.06 302.676 300.278 304.504V286.288H312.304V338.332H300.278V332.706C299.154 334.58 297.536 336.08 295.426 337.206C293.362 338.332 290.948 338.896 288.184 338.896C284.948 338.896 282.018 338.074 279.392 336.434C276.766 334.746 274.68 332.376 273.132 329.33C271.632 326.234 270.882 322.672 270.882 318.64ZM300.278 318.71C300.278 315.71 299.436 313.342 297.748 311.608C296.106 309.874 294.09 309.006 291.698 309.006C289.308 309.006 287.268 309.872 285.58 311.608C283.94 313.296 283.118 315.64 283.118 318.64C283.118 321.64 283.94 324.032 285.58 325.814C287.268 327.548 289.308 328.414 291.698 328.414C294.09 328.414 296.106 327.548 297.748 325.816C299.436 324.078 300.278 321.712 300.278 318.71ZM327.052 295.01C324.944 295.01 323.208 294.4 321.85 293.182C321.214 292.588 320.71 291.87 320.372 291.07C320.032 290.27 319.864 289.408 319.88 288.54C319.88 286.666 320.536 285.118 321.85 283.898C323.208 282.634 324.944 282 327.052 282C329.116 282 330.804 282.634 332.118 283.898C333.476 285.12 334.156 286.666 334.156 288.54C334.156 290.37 333.476 291.918 332.118 293.182C330.804 294.402 329.116 295.01 327.052 295.01ZM333.03 299.088V338.332H321.004V299.088H333.03ZM391.818 298.668C396.694 298.668 400.562 300.144 403.422 303.098C406.33 306.052 407.782 310.154 407.782 315.406V338.332H395.826V317.022C395.826 314.49 395.146 312.544 393.788 311.186C392.474 309.78 390.646 309.074 388.302 309.074C385.958 309.074 384.104 309.78 382.746 311.186C381.432 312.544 380.776 314.49 380.776 317.022V338.33H368.822V317.022C368.822 314.49 368.142 312.544 366.782 311.186C365.47 309.78 363.64 309.074 361.298 309.074C358.952 309.074 357.1 309.78 355.74 311.186C354.428 312.544 353.77 314.49 353.77 317.022V338.33H341.746V299.09H353.77V304.014C354.99 302.374 356.584 301.084 358.554 300.146C360.524 299.162 362.75 298.67 365.236 298.67C368.188 298.67 370.814 299.302 373.11 300.568C375.426 301.804 377.33 303.686 378.596 305.984C379.956 303.826 381.808 302.068 384.152 300.71C386.478 299.354 389.126 298.65 391.818 298.67V298.668ZM453.184 318.078C453.184 319.202 453.114 320.374 452.972 321.594H425.758C425.946 324.032 426.718 325.906 428.078 327.22C429.484 328.486 431.196 329.12 433.212 329.12C436.212 329.12 438.298 327.854 439.47 325.322H452.27C451.622 327.886 450.396 330.268 448.684 332.284C446.996 334.346 444.862 335.964 442.284 337.136C439.706 338.308 436.822 338.896 433.632 338.896C429.79 338.896 426.366 338.074 423.366 336.434C420.366 334.792 418.02 332.448 416.334 329.4C414.646 326.352 413.8 322.788 413.8 318.71C413.8 314.632 414.622 311.07 416.262 308.022C417.95 304.974 420.296 302.63 423.296 300.988C426.296 299.346 429.742 298.526 433.632 298.526C437.432 298.526 440.806 299.324 443.76 300.918C446.674 302.472 449.07 304.844 450.654 307.74C452.34 310.694 453.184 314.14 453.184 318.078ZM440.878 314.914C440.878 312.85 440.174 311.21 438.766 309.99C437.36 308.77 435.602 308.162 433.494 308.162C431.476 308.162 429.766 308.748 428.36 309.92C426.998 311.092 426.156 312.756 425.826 314.914H440.878ZM465.154 338.896C463.046 338.896 461.31 338.284 459.95 337.066C459.316 336.472 458.812 335.754 458.472 334.954C458.134 334.154 457.966 333.292 457.98 332.424C457.98 330.55 458.638 328.978 459.95 327.712C461.31 326.446 463.046 325.814 465.154 325.814C467.218 325.814 468.906 326.446 470.218 327.712C471.578 328.978 472.258 330.548 472.258 332.424C472.258 334.254 471.578 335.8 470.218 337.066C468.906 338.286 467.218 338.896 465.154 338.896ZM485.424 295.01C483.314 295.01 481.58 294.4 480.222 293.182C479.586 292.588 479.082 291.87 478.744 291.07C478.404 290.27 478.236 289.408 478.252 288.54C478.252 286.666 478.908 285.118 480.222 283.898C481.58 282.634 483.314 282 485.424 282C487.488 282 489.176 282.634 490.488 283.898C491.848 285.12 492.526 286.666 492.526 288.54C492.526 290.37 491.848 291.918 490.488 293.182C489.176 294.402 487.488 295.01 485.424 295.01ZM491.402 299.088V338.332H479.376V299.088H491.402ZM517.982 338.896C514.136 338.896 510.666 338.074 507.572 336.434C504.526 334.792 502.11 332.448 500.328 329.4C498.594 326.352 497.726 322.788 497.726 318.71C497.726 314.68 498.618 311.138 500.398 308.092C502.18 304.996 504.618 302.63 507.714 300.99C510.808 299.346 514.276 298.528 518.12 298.528C521.964 298.528 525.434 299.346 528.528 300.99C531.624 302.63 534.062 304.996 535.844 308.092C537.624 311.138 538.516 314.68 538.516 318.71C538.516 322.744 537.6 326.306 535.774 329.4C534.036 332.404 531.474 334.846 528.388 336.434C525.294 338.074 521.824 338.896 517.982 338.896ZM517.982 328.486C520.278 328.486 522.222 327.642 523.818 325.954C525.458 324.266 526.28 321.852 526.28 318.71C526.28 315.57 525.482 313.156 523.886 311.468C522.34 309.78 520.418 308.936 518.12 308.936C515.778 308.936 513.832 309.78 512.284 311.468C510.736 313.108 509.962 315.524 509.962 318.71C509.962 321.852 510.712 324.266 512.214 325.954C513.76 327.642 515.682 328.486 517.982 328.486Z" fill="white"/>
</svg>
